<svg xmlns="http://www.w3.org/2000/svg" width="512" height="512" viewBox="0 0 512 512">
  <rect x="0" y="0" width="512" height="512" rx="112" fill="#FDEAD6"></rect>
  <g transform="translate(256,256) scale(15.36) translate(-12,-12)" fill="none" stroke="#DB8A3C" stroke-width="1.3" stroke-linecap="round" stroke-linejoin="round">
    <path d="M12 4.5c-2.5 0-4.5 2-4.5 4.5v3.2c0 .5-.2 1-.5 1.4l-1 1.2c-.5.6-.1 1.6.7 1.6h11.6c.8 0 1.2-1 .7-1.6l-1-1.2c-.3-.4-.5-.9-.5-1.4V9c0-2.5-2-4.5-4.5-4.5Z"></path><path d="M10 18.5a2 2 0 0 0 4 0"></path>
  </g>
</svg>