<svg xmlns="http://www.w3.org/2000/svg" width="512" height="512" viewBox="0 0 512 512">
  <rect x="0" y="0" width="512" height="512" rx="112" fill="#FDEAD6"></rect>
  <g transform="translate(256,256) scale(15.36) translate(-12,-12)" fill="none" stroke="#DB8A3C" stroke-width="1.3" stroke-linecap="round" stroke-linejoin="round">
    <circle cx="16.5" cy="7.5" r="4.3"></circle><text x="16.5" y="9" font-size="4.2" text-anchor="middle" fill="#DB8A3C" stroke="none" font-family="sans-serif" font-weight="700">24</text><path d="M6.6 10.8c1.2 2.4 3.2 4.4 5.6 5.6l1.9-1.9c.3-.3.7-.4 1.1-.2.6.2 1.2.4 1.8.5"></path><path d="M4 5.6c0-.6.4-1 1-1h3.1c.6 0 1 .4 1 1 0 1.2.2 2.4.6 3.5.1.4 0 .8-.2 1.1l-1.9 1.9"></path><path d="M4 5.6C4 13.4 10.6 20 18.4 20"></path>
  </g>
</svg>