<svg xmlns="http://www.w3.org/2000/svg" width="512" height="512" viewBox="0 0 512 512">
  <rect x="0" y="0" width="512" height="512" rx="112" fill="#FBDEDB"></rect>
  <g transform="translate(256,256) scale(15.36) translate(-12,-12)" fill="none" stroke="#C6402F" stroke-width="1.3" stroke-linecap="round" stroke-linejoin="round">
    <path d="M12 3.5c1 2 .3 3.2-.6 4.4-1.1 1.4-2.1 2.7-2.1 4.6a3.9 3.9 0 0 0 3.9 3.9c1 0 1.7-.4 2.2-1-.1 1.6-1.3 2.7-2.9 2.9 2.9-.1 5.2-2.2 5.2-5.4 0-2-1-3.3-2-4.5.2 1.1-.1 1.9-.9 2.5.3-2.9-1-5.3-2.8-6.4Z"></path>
  </g>
</svg>