<svg xmlns="http://www.w3.org/2000/svg" width="512" height="512" viewBox="0 0 512 512">
  <rect x="0" y="0" width="512" height="512" rx="112" fill="#FDEAD6"></rect>
  <g transform="translate(256,256) scale(15.36) translate(-12,-12)" fill="none" stroke="#DB8A3C" stroke-width="1.3" stroke-linecap="round" stroke-linejoin="round">
    <path d="M4 17.2c1.1-1 2.2-1 3.3 0 1.1 1 2.2 1 3.3 0 1.1-1 2.2-1 3.3 0 1.1 1 2.2 1 3.3 0 1.1-1 2.2-1 3.3 0"></path><path d="M4 20.5c1.1-1 2.2-1 3.3 0 1.1 1 2.2 1 3.3 0 1.1-1 2.2-1 3.3 0 1.1 1 2.2 1 3.3 0 1.1-1 2.2-1 3.3 0"></path><path d="M9 13.5V6a1.5 1.5 0 0 1 3 0v7.5"></path><circle cx="16" cy="6.3" r="1.5"></circle>
  </g>
</svg>