<svg xmlns="http://www.w3.org/2000/svg" width="512" height="512" viewBox="0 0 512 512">
  <rect x="0" y="0" width="512" height="512" rx="112" fill="#FDEAD6"></rect>
  <g transform="translate(256,256) scale(15.36) translate(-12,-12)" fill="none" stroke="#DB8A3C" stroke-width="1.3" stroke-linecap="round" stroke-linejoin="round">
    <path d="M6 9.5A5 5 0 0 1 15.5 7"></path><path d="M17.5 9.5A1.5 1.5 0 1 1 15 8.3"></path><line x1="7.5" y1="9.5" x2="16.5" y2="9.5"></line><line x1="9" y1="13" x2="9" y2="14.3"></line><line x1="12" y1="13" x2="12" y2="14.3"></line><line x1="15" y1="13" x2="15" y2="14.3"></line><line x1="9" y1="16.5" x2="9" y2="17.8"></line><line x1="12" y1="16.5" x2="12" y2="17.8"></line><line x1="15" y1="16.5" x2="15" y2="17.8"></line><rect x="4.7" y="9.5" width="2.6" height="4" rx="0.8"></rect>
  </g>
</svg>