<svg xmlns="http://www.w3.org/2000/svg" width="512" height="512" viewBox="0 0 512 512">
  <rect x="0" y="0" width="512" height="512" rx="112" fill="#FDEAD6"></rect>
  <g transform="translate(256,256) scale(15.36) translate(-12,-12)" fill="none" stroke="#DB8A3C" stroke-width="1.3" stroke-linecap="round" stroke-linejoin="round">
    <path d="M4.5 19.5v-6.5a1.5 1.5 0 0 1 1.5-1.5h12a1.5 1.5 0 0 1 1.5 1.5v6.5"></path><line x1="4.5" y1="19.5" x2="19.5" y2="19.5"></line><path d="M4.5 8c1.6-1.5 2.9 1 4.6 0M9.7 8c1.6-1.5 2.9 1 4.6 0M14.9 8c1.6-1.5 2.9 1 4.6 0" stroke-width="1.1"></path><path d="M6.5 11.5v-2M17.5 11.5v-2"></path>
  </g>
</svg>