<svg xmlns="http://www.w3.org/2000/svg" width="512" height="512" viewBox="0 0 512 512">
  <rect x="0" y="0" width="512" height="512" rx="112" fill="#FDEAD6"></rect>
  <g transform="translate(256,256) scale(15.36) translate(-12,-12)" fill="none" stroke="#DB8A3C" stroke-width="1.3" stroke-linecap="round" stroke-linejoin="round">
    <path d="M12 5c1.6 1.8 2.4 3.4 2.4 5a2.4 2.4 0 1 1-4.8 0c0-1.6.8-3.2 2.4-5Z"></path><path d="M7 12.3c1.2 1.3 1.8 2.5 1.8 3.7a1.8 1.8 0 1 1-3.6 0c0-1.2.6-2.4 1.8-3.7Z"></path><path d="M17 12.3c1.2 1.3 1.8 2.5 1.8 3.7a1.8 1.8 0 1 1-3.6 0c0-1.2.6-2.4 1.8-3.7Z"></path><path d="M5 19.5c1.6-1.2 3-1.7 4.4-1.7M19 19.5c-1.6-1.2-3-1.7-4.4-1.7"></path>
  </g>
</svg>